<svg width="40" height="40" viewBox="0 0 40 40" fill="none" xmlns="http://www.w3.org/2000/svg">
<path d="M27.143 18.5714H21.4287V12.8571C21.4287 12.0681 20.7891 11.4285 20.0001 11.4285C19.2111 11.4285 18.5715 12.0681 18.5715 12.8571V18.5714H12.8573C12.0683 18.5714 11.4287 19.211 11.4287 20C11.4287 20.789 12.0683 21.4286 12.8573 21.4286H18.5716V27.1429C18.5716 27.9319 19.2112 28.5715 20.0002 28.5715C20.7892 28.5715 21.4287 27.9318 21.4287 27.1429V21.4286H27.143C27.932 21.4286 28.5716 20.789 28.5716 20C28.5716 19.2109 27.9319 18.5714 27.143 18.5714Z" fill="#121113"/>
<rect x="1" y="1" width="38" height="38" rx="4" stroke="black" stroke-width="2"/>
</svg>
