<svg width="40" height="40" viewBox="0 0 40 40" fill="none" xmlns="http://www.w3.org/2000/svg">
<path d="M14.444 19.1313C14.2214 20.4904 14.5413 21.855 15.345 22.9736C16.1486 24.092 17.3397 24.8307 18.6989 25.0533C18.9799 25.0994 19.2594 25.1217 19.5354 25.1217C20.5208 25.1217 21.4601 24.8365 22.2612 24.3355C22.8347 24.6951 23.4795 24.9406 24.1677 25.0533C24.4487 25.0994 24.7282 25.1217 25.0041 25.1217C27.4834 25.1217 29.6761 23.3232 30.0898 20.7986C30.5495 17.9928 28.6407 15.3362 25.8349 14.8764C24.5491 14.6658 23.2954 14.9536 22.2694 15.5961C21.7054 15.2416 21.0638 14.9907 20.3662 14.8764C17.5606 14.4173 14.9037 16.3255 14.444 19.1313ZM21.4547 19.3839C21.743 17.6242 23.2711 16.3708 24.9992 16.3708C25.1915 16.3708 25.3865 16.3864 25.5822 16.4185C27.5377 16.7389 28.8681 18.5904 28.5477 20.5459C28.2273 22.5015 26.3757 23.8318 24.4201 23.5114C23.4729 23.3563 22.6427 22.8414 22.0826 22.0618C21.5225 21.2822 21.2995 20.3311 21.4547 19.3839ZM20.8137 22.9736C20.8783 23.0636 20.9464 23.1502 21.0159 23.2352C20.3909 23.5202 19.6787 23.6306 18.9514 23.5114C18.0041 23.3563 17.174 22.8414 16.6138 22.0618C16.0537 21.2822 15.8308 20.3312 15.9859 19.3839C16.1411 18.4367 16.6559 17.6065 17.4355 17.0464C18.0533 16.6025 18.7787 16.3703 19.5248 16.3703C19.7201 16.3703 19.9169 16.3863 20.1133 16.4185C20.4336 16.4709 20.736 16.566 21.018 16.6945C20.4587 17.3732 20.0648 18.2027 19.9126 19.1314C19.6901 20.4904 20.0101 21.855 20.8137 22.9736Z" fill="#6473FF"/>
<path d="M20.6825 13.3397C21.1111 13.3776 21.4535 13.0728 21.5161 12.6899L21.8256 10.801C21.8954 10.3752 21.6067 9.97346 21.1809 9.90369C20.7553 9.83408 20.3533 10.1226 20.2837 10.5484L19.9742 12.4372C19.9045 12.8631 20.2567 13.2699 20.6825 13.3397Z" fill="#6473FF"/>
<path d="M12.2402 21.8846L10.4497 22.561C10.046 22.7135 9.84248 23.1643 9.99498 23.568C10.1131 23.8807 10.4103 24.0734 10.7259 24.0734C10.8177 24.0734 10.911 24.057 11.0019 24.0228L12.7925 23.3463C13.1961 23.1939 13.3997 22.7431 13.2472 22.3394C13.0947 21.9356 12.6436 21.7321 12.2402 21.8846Z" fill="#6473FF"/>
<path d="M21.6922 27.1896C21.6122 26.7657 21.2038 26.4871 20.7795 26.5668C20.3555 26.6468 20.0767 27.0555 20.1568 27.4795L20.512 29.3603C20.5828 29.7353 20.9913 30.028 21.3518 29.9899C21.8141 29.9475 22.1275 29.4943 22.0474 29.0703L21.6922 27.1896Z" fill="#6473FF"/>
<path d="M16.2442 25.8239C15.8678 25.6128 15.3916 25.7466 15.1805 26.1228L14.2437 27.7918C14.0325 28.1681 14.1663 28.6442 14.5426 28.8555C14.6635 28.9233 14.7948 28.9556 14.9242 28.9556C15.1976 28.9556 15.463 28.8118 15.6062 28.5566L16.543 26.8875C16.7542 26.5113 16.6205 26.0351 16.2442 25.8239Z" fill="#6473FF"/>
<path d="M10.3897 17.5901L12.1962 18.2228C12.2816 18.2528 12.3687 18.267 12.4544 18.267C12.7771 18.267 13.0791 18.0655 13.1918 17.7438C13.3344 17.3366 13.1199 16.8909 12.7127 16.7482L10.9062 16.1154C10.499 15.973 10.0533 16.1873 9.9106 16.5945C9.76795 17.0018 9.9824 17.4475 10.3897 17.5901Z" fill="#6473FF"/>
<path d="M15.7045 14.2971C15.8401 14.2971 15.9775 14.2618 16.1026 14.1876C16.4736 13.9674 16.5958 13.488 16.3756 13.117L15.3985 11.4711C15.1782 11.1001 14.6989 10.9779 14.3279 11.1982C13.9568 11.4184 13.8347 11.8978 14.0549 12.2688L15.032 13.9146C15.178 14.1605 15.4379 14.2971 15.7045 14.2971Z" fill="#6473FF"/>
<rect x="1" y="1" width="38" height="38" rx="4" stroke="#6473FF" stroke-width="2"/>
</svg>
