<svg width="40" height="40" viewBox="0 0 40 40" fill="none" xmlns="http://www.w3.org/2000/svg">
<path d="M24.0407 13.9391L20 17.9797L15.9594 13.9391C15.4015 13.3812 14.497 13.3812 13.9391 13.9391C13.3812 14.497 13.3812 15.4015 13.9391 15.9594L17.9797 20.0001L13.9391 24.0406C13.3812 24.5985 13.3812 25.5031 13.9391 26.061C14.4971 26.6189 15.4015 26.6188 15.9594 26.0609L20 22.0203L24.0407 26.0609C24.5986 26.6188 25.5031 26.6188 26.061 26.0609C26.6189 25.503 26.6188 24.5985 26.061 24.0406L22.0203 20L26.0609 15.9594C26.6189 15.4015 26.6189 14.497 26.0609 13.939C25.503 13.3811 24.5985 13.3812 24.0407 13.9391Z" fill="#6473FF"/>
<rect x="1" y="1" width="38" height="38" rx="4" stroke="#6473FF" stroke-width="2"/>
</svg>
