<svg width="30" height="30" viewBox="0 0 30 30" fill="none" xmlns="http://www.w3.org/2000/svg">
<path d="M15 0C6.70881 0 0 6.70939 0 15C0 23.2912 6.70939 30 15 30C23.2912 30 30 23.2906 30 15C30 6.70881 23.2906 0 15 0ZM15 27.6562C8.00432 27.6562 2.34375 21.9952 2.34375 15C2.34375 8.00432 8.00478 2.34375 15 2.34375C21.9957 2.34375 27.6562 8.00478 27.6562 15C27.6562 21.9957 21.9952 27.6562 15 27.6562Z" fill="#FF0000"/>
<path d="M15 7.55138C14.3528 7.55138 13.8281 8.07603 13.8281 8.72326V16.2697C13.8281 16.917 14.3528 17.4416 15 17.4416C15.6472 17.4416 16.1719 16.917 16.1719 16.2697V8.72326C16.1719 8.07603 15.6472 7.55138 15 7.55138Z" fill="#FF0000"/>
<path d="M15 22.0406C15.8737 22.0406 16.582 21.3323 16.582 20.4586C16.582 19.5849 15.8737 18.8766 15 18.8766C14.1263 18.8766 13.418 19.5849 13.418 20.4586C13.418 21.3323 14.1263 22.0406 15 22.0406Z" fill="#FF0000"/>
</svg>
