<svg width="122" height="138" viewBox="0 0 122 138" fill="none" xmlns="http://www.w3.org/2000/svg">
<g filter="url(#filter0_d)">
<path d="M20.1 87.3C20.1 90.7 20.5 93.7666 21.3 96.5C22.1667 99.2333 23.3667 101.6 24.9 103.6C26.5 105.533 28.4333 107.033 30.7 108.1C32.9667 109.167 35.5667 109.7 38.5 109.7C41.3667 109.7 43.9333 109.167 46.2 108.1C48.5333 107.033 50.4667 105.533 52 103.6C53.6 101.6 54.8 99.2333 55.6 96.5C56.4667 93.7666 56.9 90.7 56.9 87.3C56.9 83.9 56.4667 80.8333 55.6 78.1C54.8 75.3 53.6 72.9333 52 71C50.4667 69 48.5333 67.4666 46.2 66.4C43.9333 65.3333 41.3667 64.8 38.5 64.8C35.5667 64.8 32.9667 65.3666 30.7 66.5C28.4333 67.5666 26.5 69.1 24.9 71.1C23.3667 73.0333 22.1667 75.4 21.3 78.2C20.5 80.9333 20.1 83.9666 20.1 87.3ZM73 87.3C73 93.2333 72.1 98.4666 70.3 103C68.5667 107.467 66.1667 111.233 63.1 114.3C60.0333 117.3 56.3667 119.567 52.1 121.1C47.9 122.633 43.3667 123.4 38.5 123.4C33.7667 123.4 29.3 122.633 25.1 121.1C20.9 119.567 17.2333 117.3 14.1 114.3C10.9667 111.233 8.5 107.467 6.7 103C4.9 98.4666 4 93.2333 4 87.3C4 81.3666 4.93333 76.1666 6.8 71.7C8.66667 67.1666 11.1667 63.3666 14.3 60.3C17.5 57.2333 21.1667 54.9333 25.3 53.4C29.5 51.8666 33.9 51.1 38.5 51.1C43.2333 51.1 47.7 51.8666 51.9 53.4C56.1 54.9333 59.7667 57.2333 62.9 60.3C66.0333 63.3666 68.5 67.1666 70.3 71.7C72.1 76.1666 73 81.3666 73 87.3Z" fill="white"/>
</g>
<path d="M49.984 117.712C51.04 117.808 52.24 117.904 53.584 118C55.024 118 56.704 118 58.624 118C69.856 118 78.16 115.168 83.536 109.504C89.008 103.84 91.744 96.016 91.744 86.032C91.744 75.568 89.152 67.648 83.968 62.272C78.784 56.896 70.576 54.208 59.344 54.208C57.808 54.208 56.224 54.256 54.592 54.352C52.96 54.352 51.424 54.448 49.984 54.64V117.712ZM114.928 86.032C114.928 94.672 113.584 102.208 110.896 108.64C108.208 115.072 104.368 120.4 99.376 124.624C94.48 128.848 88.48 132.016 81.376 134.128C74.272 136.24 66.304 137.296 57.472 137.296C53.44 137.296 48.736 137.104 43.36 136.72C37.984 136.432 32.704 135.76 27.52 134.704V37.504C32.704 36.544 38.08 35.92 43.648 35.632C49.312 35.248 54.16 35.056 58.192 35.056C66.736 35.056 74.464 36.016 81.376 37.936C88.384 39.856 94.384 42.88 99.376 47.008C104.368 51.136 108.208 56.416 110.896 62.848C113.584 69.28 114.928 77.008 114.928 86.032Z" fill="#6473FF"/>
<mask id="mask0" style="mask-type:alpha" maskUnits="userSpaceOnUse" x="4" y="51" width="69" height="73">
<path d="M20.1 87.2C20.1 90.6 20.5 93.6667 21.3 96.4C22.1667 99.1333 23.3667 101.5 24.9 103.5C26.5 105.433 28.4333 106.933 30.7 108C32.9667 109.067 35.5667 109.6 38.5 109.6C41.3667 109.6 43.9333 109.067 46.2 108C48.5333 106.933 50.4667 105.433 52 103.5C53.6 101.5 54.8 99.1333 55.6 96.4C56.4667 93.6667 56.9 90.6 56.9 87.2C56.9 83.8 56.4667 80.7333 55.6 78C54.8 75.2 53.6 72.8333 52 70.9C50.4667 68.9 48.5333 67.3667 46.2 66.3C43.9333 65.2333 41.3667 64.7 38.5 64.7C35.5667 64.7 32.9667 65.2667 30.7 66.4C28.4333 67.4667 26.5 69 24.9 71C23.3667 72.9333 22.1667 75.3 21.3 78.1C20.5 80.8333 20.1 83.8667 20.1 87.2ZM73 87.2C73 93.1333 72.1 98.3667 70.3 102.9C68.5667 107.367 66.1667 111.133 63.1 114.2C60.0333 117.2 56.3667 119.467 52.1 121C47.9 122.533 43.3667 123.3 38.5 123.3C33.7667 123.3 29.3 122.533 25.1 121C20.9 119.467 17.2333 117.2 14.1 114.2C10.9667 111.133 8.5 107.367 6.7 102.9C4.9 98.3667 4 93.1333 4 87.2C4 81.2667 4.93333 76.0667 6.8 71.6C8.66667 67.0667 11.1667 63.2667 14.3 60.2C17.5 57.1333 21.1667 54.8333 25.3 53.3C29.5 51.7667 33.9 51 38.5 51C43.2333 51 47.7 51.7667 51.9 53.3C56.1 54.8333 59.7667 57.1333 62.9 60.2C66.0333 63.2667 68.5 67.0667 70.3 71.6C72.1 76.0667 73 81.2667 73 87.2Z" fill="white"/>
</mask>
<g mask="url(#mask0)">
<rect x="4" y="44" width="69" height="43" fill="white"/>
</g>
<defs>
<filter id="filter0_d" x="0" y="51.1" width="77" height="80.3" filterUnits="userSpaceOnUse" color-interpolation-filters="sRGB">
<feFlood flood-opacity="0" result="BackgroundImageFix"/>
<feColorMatrix in="SourceAlpha" type="matrix" values="0 0 0 0 0 0 0 0 0 0 0 0 0 0 0 0 0 0 127 0" result="hardAlpha"/>
<feOffset dy="4"/>
<feGaussianBlur stdDeviation="2"/>
<feComposite in2="hardAlpha" operator="out"/>
<feColorMatrix type="matrix" values="0 0 0 0 0 0 0 0 0 0 0 0 0 0 0 0 0 0 0.25 0"/>
<feBlend mode="normal" in2="BackgroundImageFix" result="effect1_dropShadow"/>
<feBlend mode="normal" in="SourceGraphic" in2="effect1_dropShadow" result="shape"/>
</filter>
</defs>
</svg>
